HIERARCHY
ROOT Hips
{
	OFFSET 0.000000 0.000000 0.000000
	CHANNELS 6 Xposition Yposition Zposition Zrotation Xrotation Yrotation
	JOINT Spine
	{
		OFFSET 0.000000 -0.000000 0.081624
		CHANNELS 6 Xposition Yposition Zposition Zrotation Xrotation Yrotation
		JOINT Spine1
		{
			OFFSET 0.000000 -0.000000 0.223658
			CHANNELS 6 Xposition Yposition Zposition Zrotation Xrotation Yrotation
			JOINT Neck
			{
				OFFSET 0.000000 -0.000000 0.223658
				CHANNELS 6 Xposition Yposition Zposition Zrotation Xrotation Yrotation
				JOINT Head
				{
					OFFSET 0.000000 -0.000000 0.109496
					CHANNELS 6 Xposition Yposition Zposition Zrotation Xrotation Yrotation
					End Site
					{
						OFFSET 0.000000 -0.000000 0.248855
					}
				}
			}
			JOINT LeftShoulder
			{
				OFFSET 0.038712 0.001691 0.204072
				CHANNELS 6 Xposition Yposition Zposition Zrotation Xrotation Yrotation
				JOINT LeftArm
				{
					OFFSET 0.112670 0.000000 0.000000
					CHANNELS 6 Xposition Yposition Zposition Zrotation Xrotation Yrotation
					JOINT LeftForeArm
					{
						OFFSET 0.324399 0.000000 0.000000
						CHANNELS 6 Xposition Yposition Zposition Zrotation Xrotation Yrotation
						JOINT LeftHand
						{
							OFFSET 0.295418 0.000000 0.000000
							CHANNELS 6 Xposition Yposition Zposition Zrotation Xrotation Yrotation
							End Site
							{
								OFFSET 0.149313 0.000000 0.000000
							}
						}
					}
				}
			}
			JOINT RightShoulder
			{
				OFFSET -0.038825 0.001691 0.204072
				CHANNELS 6 Xposition Yposition Zposition Zrotation Xrotation Yrotation
				JOINT RightArm
				{
					OFFSET -0.112670 0.000000 0.000000
					CHANNELS 6 Xposition Yposition Zposition Zrotation Xrotation Yrotation
					JOINT RightForeArm
					{
						OFFSET -0.324399 0.000000 0.000000
						CHANNELS 6 Xposition Yposition Zposition Zrotation Xrotation Yrotation
						JOINT RightHand
						{
							OFFSET -0.295418 0.000000 0.000000
							CHANNELS 6 Xposition Yposition Zposition Zrotation Xrotation Yrotation
							End Site
							{
								OFFSET -0.149313 0.000000 0.000000
							}
						}
					}
				}
			}
		}
	}
	JOINT LeftUpLeg
	{
		OFFSET 0.099542 0.000000 0.000000
		CHANNELS 6 Xposition Yposition Zposition Zrotation Xrotation Yrotation
		JOINT LeftLeg
		{
			OFFSET 0.000000 0.000000 -0.482893
			CHANNELS 6 Xposition Yposition Zposition Zrotation Xrotation Yrotation
			JOINT LeftFoot
			{
				OFFSET 0.000000 0.000000 -0.449402
				CHANNELS 6 Xposition Yposition Zposition Zrotation Xrotation Yrotation
				JOINT LeftToeBase
				{
					OFFSET 0.000000 -0.149313 -0.064702
					CHANNELS 6 Xposition Yposition Zposition Zrotation Xrotation Yrotation
					End Site
					{
						OFFSET 0.000000 -0.039817 -0.000000
					}
				}
			}
		}
	}
	JOINT RightUpLeg
	{
		OFFSET -0.099542 0.000000 0.000000
		CHANNELS 6 Xposition Yposition Zposition Zrotation Xrotation Yrotation
		JOINT RightLeg
		{
			OFFSET 0.000000 0.000000 -0.482893
			CHANNELS 6 Xposition Yposition Zposition Zrotation Xrotation Yrotation
			JOINT RightFoot
			{
				OFFSET 0.000000 0.000000 -0.449402
				CHANNELS 6 Xposition Yposition Zposition Zrotation Xrotation Yrotation
				JOINT RightToeBase
				{
					OFFSET 0.000000 -0.149313 -0.064702
					CHANNELS 6 Xposition Yposition Zposition Zrotation Xrotation Yrotation
					End Site
					{
						OFFSET 0.000000 -0.039817 -0.000000
					}
				}
			}
		}
	}
}
MOTION
Frames: 9
Frame Time: 0.041667
0.025381 -1.592360 0.965596 161.456656 1.572570 -4.874805 -0.000000 0.000000 0.081624 0.021063 -0.874784 2.758360 -0.000000 -0.000000 0.223658 3.608242 5.739905 2.880146 -0.000000 -0.000000 0.223658 -0.148481 15.958740 1.058431 -0.000000 0.000000 0.109496 -3.470830 -11.441643 -7.164527 0.038712 0.001691 0.204072 18.481310 12.989120 1.749803 0.112670 0.000000 0.000000 -39.790695 3.283325 66.820260 0.324399 0.000000 -0.000000 -15.091520 0.758594 -5.722168 0.295418 0.000000 -0.000000 -0.261578 -9.113168 1.645146 -0.038825 0.001691 0.204072 20.906760 15.188194 -3.259561 -0.112670 0.000000 0.000000 33.753340 1.926875 -60.849773 -0.324399 -0.000000 -0.000000 22.936045 0.364801 1.798178 -0.295418 0.000000 0.000000 -0.612869 -16.596040 6.818999 0.099542 0.000000 -0.000000 11.512899 -12.272457 1.438895 0.000000 0.000000 -0.482893 -0.470822 29.419739 7.857060 0.000000 0.000000 -0.449402 20.261392 -18.356833 2.353980 0.000000 -0.149313 -0.064702 0.000002 0.000003 -0.000001 -0.099542 0.000000 -0.000000 -4.127089 4.320383 6.215610 0.000000 0.000000 -0.482893 2.627270 10.690070 -3.021652 0.000000 0.000000 -0.449402 -9.026037 -19.046259 -0.570030 0.000000 -0.149313 -0.064702 -0.000003 0.000000 0.000001 
0.026503 -1.587463 0.965026 160.904422 1.767261 -4.987843 0.000000 -0.000000 0.081624 0.019853 -0.829783 2.740638 0.000000 -0.000000 0.223658 3.861032 5.761293 3.119102 -0.000000 -0.000000 0.223658 -0.165689 15.751046 1.197066 -0.000000 -0.000000 0.109496 -3.224285 -11.263206 -7.453857 0.038712 0.001691 0.204072 18.668729 12.753754 1.641377 0.112670 -0.000000 -0.000000 -39.787416 3.182923 66.897427 0.324399 0.000000 -0.000000 -15.796988 0.804464 -5.793847 0.295418 -0.000000 0.000000 -0.304303 -9.036123 1.915138 -0.038825 0.001691 0.204072 21.228756 15.301454 -3.297184 -0.112670 0.000000 0.000000 34.074437 1.857632 -60.466101 -0.324399 0.000000 0.000000 23.794438 0.360170 1.709475 -0.295418 -0.000000 0.000000 -0.430462 -18.225496 6.717147 0.099542 -0.000000 -0.000000 11.743390 -12.974340 1.382955 0.000000 0.000000 -0.482893 -0.173277 27.970026 7.713919 -0.000000 0.000000 -0.449402 20.238604 -17.653500 2.323497 -0.000000 -0.149313 -0.064702 -0.000000 -0.000000 0.000000 -0.099542 -0.000000 -0.000000 -4.263457 4.399129 6.409506 -0.000000 0.000000 -0.482893 2.755346 10.567067 -2.893010 0.000000 0.000000 -0.449402 -8.814328 -19.235713 -0.835735 -0.000000 -0.149313 -0.064702 -0.000002 0.000001 0.000000 
0.027615 -1.581841 0.964244 160.433808 1.887986 -5.044401 0.000000 -0.000000 0.081624 0.017197 -0.747695 2.635530 0.000000 -0.000000 0.223658 3.866553 5.785579 3.469018 0.000000 0.000000 0.223658 -0.162791 15.500021 1.195500 -0.000000 -0.000000 0.109496 -2.901897 -11.131440 -7.502227 0.038712 0.001691 0.204072 18.818740 12.516439 1.434355 0.112670 -0.000000 0.000000 -39.631592 3.063864 67.056270 0.324399 0.000000 0.000000 -16.508665 0.855481 -5.892017 0.295418 0.000000 0.000000 -0.344092 -8.866693 2.118918 -0.038825 0.001691 0.204072 21.491238 15.415725 -3.365086 -0.112670 0.000000 -0.000000 34.672240 1.679500 -59.758835 -0.324399 -0.000000 -0.000000 24.903520 0.350274 1.586218 -0.295418 -0.000000 0.000000 -0.239555 -19.680355 6.414904 0.099542 -0.000000 0.000000 11.828242 -13.512369 1.342454 0.000000 0.000000 -0.482893 0.345474 26.170814 7.226820 -0.000000 0.000000 -0.449402 20.092642 -16.834511 2.235236 0.000000 -0.149313 -0.064702 -0.000001 -0.000000 -0.000000 -0.099542 -0.000000 0.000000 -4.477922 4.628304 6.635884 0.000000 0.000000 -0.482893 3.072718 10.377662 -2.922077 0.000000 -0.000000 -0.449402 -8.783500 -19.434303 -1.082596 0.000000 -0.149313 -0.064702 0.000000 -0.000002 -0.000001 
0.028729 -1.575672 0.963297 159.926926 1.966859 -5.056055 0.000000 -0.000000 0.081624 0.014191 -0.640546 2.538894 -0.000000 -0.000000 0.223658 3.749030 5.758599 3.819379 0.000000 -0.000000 0.223658 -0.140907 15.372527 1.043303 -0.000000 -0.000000 0.109496 -2.504420 -11.170096 -7.331324 0.038712 0.001691 0.204072 18.875279 12.368403 1.183247 0.112670 -0.000000 0.000000 -39.320463 2.877529 67.211411 0.324399 0.000000 0.000000 -17.145660 0.893924 -5.924760 0.295418 -0.000000 0.000000 -0.445087 -8.736340 2.048124 -0.038825 0.001691 0.204072 21.709922 15.459230 -3.458026 -0.112670 0.000000 -0.000000 35.589066 1.474594 -58.674440 -0.324399 0.000000 0.000000 26.310129 0.367040 1.570349 -0.295418 0.000000 0.000000 -0.020276 -21.227147 6.070845 0.099542 -0.000000 -0.000000 11.798365 -13.916601 1.270632 -0.000000 0.000000 -0.482893 1.055596 24.060432 6.584642 -0.000000 0.000000 -0.449402 19.785292 -15.885147 2.147071 -0.000000 -0.149313 -0.064702 0.000000 -0.000001 0.000000 -0.099542 -0.000000 -0.000000 -4.592086 4.909868 6.853049 0.000000 0.000000 -0.482893 3.512977 10.246392 -3.020360 0.000000 -0.000000 -0.449402 -8.903989 -19.633983 -1.390530 0.000000 -0.149313 -0.064702 0.000001 -0.000001 -0.000001 
0.029859 -1.569314 0.962219 159.252445 2.044619 -5.025693 -0.000000 -0.000000 0.081624 0.011699 -0.529199 2.533734 -0.000000 -0.000000 0.223658 3.659770 5.669429 4.043864 0.000000 0.000000 0.223658 -0.109714 15.494059 0.805804 0.000000 -0.000000 0.109496 -2.030573 -11.514823 -7.014667 0.038712 0.001691 0.204072 18.804829 12.347129 0.987062 0.112670 -0.000000 -0.000000 -38.939349 2.636218 67.266920 0.324399 -0.000000 -0.000000 -17.618890 0.902342 -5.817615 0.295418 0.000000 0.000000 -0.674599 -8.739535 1.640238 -0.038825 0.001691 0.204072 21.946506 15.363455 -3.545326 -0.112670 -0.000000 0.000000 36.770689 1.270814 -57.193842 -0.324399 -0.000000 -0.000000 27.994239 0.441917 1.772716 -0.295418 -0.000000 -0.000000 0.113724 -22.615023 5.753564 0.099542 -0.000000 -0.000000 11.737782 -14.214442 1.112065 -0.000000 0.000000 -0.482893 1.836351 21.750227 5.987101 0.000000 0.000000 -0.449402 19.278004 -14.697160 2.212905 -0.000000 -0.149313 -0.064702 0.000000 -0.000001 0.000001 -0.099542 -0.000000 0.000000 -4.492116 5.109264 6.984612 -0.000000 0.000000 -0.482893 3.916422 10.317714 -3.023214 0.000000 0.000000 -0.449402 -9.008184 -19.836698 -1.869774 -0.000000 -0.149313 -0.064702 0.000001 0.000000 -0.000001 
0.031027 -1.562650 0.961015 158.361269 2.083950 -4.966102 -0.000000 0.000000 0.081624 0.009167 -0.398790 2.634802 -0.000000 0.000000 0.223658 3.658052 5.573913 4.113525 -0.000000 -0.000000 0.223658 -0.076985 15.798263 0.554129 -0.000000 -0.000000 0.109496 -1.461117 -12.075850 -6.621028 0.038712 0.001691 0.204072 18.595337 12.414238 0.899112 0.112670 -0.000000 0.000000 -38.644220 2.420297 67.212558 0.324399 0.000000 0.000000 -17.920101 0.887256 -5.622949 0.295418 -0.000000 -0.000000 -0.978282 -8.872313 1.064857 -0.038825 0.001691 0.204072 22.236080 15.103507 -3.584793 -0.112670 -0.000000 -0.000000 38.067089 0.948915 -55.263586 -0.324399 -0.000000 -0.000000 29.936231 0.577250 2.158889 -0.295418 0.000000 0.000000 0.134124 -23.112901 5.549013 0.099542 0.000000 -0.000000 11.697221 -14.348578 0.865235 -0.000000 0.000000 -0.482893 2.645927 19.302152 5.466830 0.000000 0.000000 -0.449402 18.508484 -13.093867 2.543812 -0.000000 -0.149313 -0.064702 -0.000001 0.000001 0.000000 -0.099542 0.000000 0.000000 -4.266877 5.253457 7.040072 0.000000 -0.000000 -0.482893 4.262167 10.591261 -2.864965 0.000000 0.000000 -0.449402 -8.989442 -20.078844 -2.442131 0.000000 -0.149313 -0.064702 -0.000001 0.000000 0.000001 
0.032196 -1.555543 0.959699 157.288424 2.025832 -4.900887 -0.000000 -0.000000 0.081624 0.005355 -0.218129 2.813678 0.000000 -0.000000 0.223658 3.758060 5.501967 4.077665 -0.000000 -0.000000 0.223658 -0.047254 16.120916 0.332897 0.000000 -0.000000 0.109496 -0.814122 -12.576276 -6.236891 0.038712 0.001691 0.204072 18.273618 12.508808 0.888769 0.112670 -0.000000 -0.000000 -38.666855 2.316320 67.105762 0.324399 0.000000 0.000000 -18.040404 0.869422 -5.472862 0.295418 0.000000 -0.000000 -1.178074 -9.063132 0.677852 -0.038825 0.001691 0.204072 22.594225 14.684859 -3.523704 -0.112670 0.000000 -0.000000 39.182261 0.346305 -52.953234 -0.324399 0.000000 0.000000 32.153174 0.756938 2.626037 -0.295418 -0.000000 0.000000 0.098120 -22.504099 5.513264 0.099542 -0.000000 0.000000 11.683524 -14.249713 0.581875 0.000000 0.000000 -0.482893 3.435893 16.861292 4.982930 -0.000000 0.000000 -0.449402 17.493614 -11.123330 3.113914 -0.000000 -0.149313 -0.064702 -0.000000 -0.000001 0.000001 -0.099542 -0.000000 0.000000 -4.014351 5.450654 7.100366 0.000000 -0.000000 -0.482893 4.568188 10.958043 -2.613146 0.000000 0.000000 -0.449402 -8.823724 -20.417177 -2.883101 -0.000000 -0.149313 -0.064702 -0.000002 0.000000 0.000000 
0.033331 -1.547901 0.958266 156.089835 1.861066 -4.846109 0.000000 -0.000000 0.081624 -0.000345 0.012771 3.030286 -0.000000 0.000000 0.223658 3.960918 5.426994 4.003645 -0.000000 0.000000 0.223658 -0.023278 16.437043 0.160369 0.000000 -0.000000 0.109496 -0.139928 -12.865886 -5.957072 0.038712 0.001691 0.204072 17.900157 12.589563 0.873328 0.112670 0.000000 0.000000 -39.168799 2.311436 66.977839 0.324399 0.000000 -0.000000 -17.891457 0.846470 -5.373635 0.295418 0.000000 0.000000 -1.191678 -9.158050 0.748281 -0.038825 0.001691 0.204072 23.064775 14.104026 -3.326399 -0.112670 -0.000000 -0.000000 39.862200 -0.593247 -50.433038 -0.324399 -0.000000 0.000000 34.765496 0.981505 3.134479 -0.295418 -0.000000 -0.000000 -0.007509 -21.604501 5.523744 0.099542 -0.000000 -0.000000 11.631082 -13.939315 0.294719 0.000000 -0.000000 -0.482893 4.055330 14.643116 4.539544 0.000000 0.000000 -0.449402 16.437204 -9.209503 3.759812 -0.000000 -0.149313 -0.064702 -0.000000 -0.000001 -0.000000 -0.099542 -0.000000 -0.000000 -3.737517 5.750430 7.238664 0.000000 -0.000000 -0.482893 4.881553 11.349750 -2.389816 0.000000 0.000000 -0.449402 -8.553984 -20.849612 -3.184975 -0.000000 -0.149313 -0.064702 -0.000001 0.000001 0.000001 
0.034385 -1.539675 0.956712 154.824775 1.637231 -4.803804 -0.000000 -0.000000 0.081624 -0.006685 0.235821 3.245563 0.000000 -0.000000 0.223658 4.252034 5.314222 3.932890 0.000000 -0.000000 0.223658 -0.006556 16.905297 0.043297 -0.000000 -0.000000 0.109496 0.508223 -13.041018 -5.832405 0.038712 0.001691 0.204072 17.533589 12.640592 0.791234 0.112670 0.000000 0.000000 -40.097681 2.312239 66.810875 0.324399 -0.000000 -0.000000 -17.377687 0.790623 -5.170141 0.295418 -0.000000 0.000000 -1.139187 -8.930203 1.219113 -0.038825 0.001691 0.204072 23.691102 13.347895 -2.996574 -0.112670 -0.000000 0.000000 40.098535 -1.753608 -47.846442 -0.324399 -0.000000 -0.000000 37.847120 1.273215 3.712498 -0.295418 0.000000 0.000000 -0.341517 -21.238687 5.471533 0.099542 -0.000000 -0.000000 11.410610 -13.515321 -0.004066 -0.000000 0.000000 -0.482893 4.369157 12.868134 4.201588 0.000000 0.000000 -0.449402 15.677639 -7.868775 4.291759 -0.000000 -0.149313 -0.064702 0.000001 -0.000001 0.000000 -0.099542 -0.000000 -0.000000 -3.455919 6.087760 7.477328 0.000000 -0.000000 -0.482893 5.383246 11.817141 -2.283446 0.000000 0.000000 -0.449402 -8.323333 -21.311345 -3.540313 0.000000 -0.149313 -0.064702 -0.000000 -0.000000 -0.000002 
